<svg width="189" height="48" viewBox="0 0 189 48" fill="none" xmlns="http://www.w3.org/2000/svg">
<path d="M186 3H3V45H186V3Z" stroke="white" stroke-width="5"/>
<path d="M25.4571 23.3224C25.4571 23.0846 25.4479 22.8012 25.4294 22.4721C25.4109 22.1246 25.3924 21.7772 25.3739 21.4298C25.3739 21.0824 25.3646 20.7624 25.3461 20.4698C25.3276 20.1589 25.3184 19.9212 25.3184 19.7566H26.9836C27.0021 20.2321 27.0113 20.6892 27.0113 21.1281C27.0298 21.5669 27.0576 21.8504 27.0946 21.9784C27.5201 21.2286 28.066 20.6161 28.732 20.1406C29.3981 19.6652 30.2122 19.4275 31.1744 19.4275C31.3409 19.4275 31.4982 19.4458 31.6462 19.4824C31.8127 19.5006 31.9792 19.5281 32.1457 19.5646L31.9515 21.1829C31.7294 21.1098 31.5167 21.0732 31.3131 21.0732C30.5915 21.0732 29.9625 21.1921 29.4259 21.4298C28.9078 21.6492 28.473 21.9601 28.1215 22.3624C27.7884 22.7646 27.5386 23.2401 27.3721 23.7886C27.2056 24.3189 27.1223 24.8949 27.1223 25.5166V32.4286H25.4571V23.3224ZM34.9769 19.7566H36.6421V32.4286H34.9769V19.7566ZM34.5606 14.7372C34.5606 14.3898 34.6808 14.0972 34.9214 13.8595C35.1619 13.6218 35.4579 13.5029 35.8095 13.5029C36.161 13.5029 36.4571 13.6218 36.6976 13.8595C36.9381 14.0972 37.0584 14.3898 37.0584 14.7372C37.0584 15.0846 36.9381 15.3772 36.6976 15.6149C36.4571 15.8526 36.161 15.9715 35.8095 15.9715C35.4579 15.9715 35.1619 15.8526 34.9214 15.6149C34.6808 15.3772 34.5606 15.0846 34.5606 14.7372ZM41.3943 29.1921C41.7459 29.8686 42.2639 30.3898 42.9485 30.7555C43.6331 31.1029 44.3547 31.2766 45.1133 31.2766C45.4648 31.2766 45.8164 31.2218 46.1679 31.1121C46.5195 31.0024 46.834 30.8469 47.1115 30.6458C47.3891 30.4446 47.6111 30.2069 47.7776 29.9326C47.9627 29.6401 48.0552 29.3109 48.0552 28.9452C48.0552 28.3601 47.8609 27.9212 47.4723 27.6286C47.1023 27.3361 46.6397 27.1075 46.0847 26.9429C45.5296 26.7784 44.919 26.6412 44.2529 26.5315C43.5868 26.4035 42.9763 26.2206 42.4212 25.9829C41.8661 25.7269 41.3943 25.3795 41.0058 24.9406C40.6357 24.5018 40.4507 23.8801 40.4507 23.0755C40.4507 22.4538 40.5802 21.9144 40.8392 21.4572C41.0983 21.0001 41.4313 20.6252 41.8384 20.3326C42.2639 20.0218 42.7357 19.7932 43.2538 19.6469C43.7719 19.5006 44.2992 19.4275 44.8358 19.4275C45.8904 19.4275 46.797 19.6195 47.5556 20.0035C48.3327 20.3875 48.934 20.9909 49.3596 21.8138L47.8609 22.6915C47.5464 22.1064 47.1486 21.6675 46.6675 21.3749C46.2049 21.0641 45.5944 20.9086 44.8358 20.9086C44.5397 20.9086 44.2252 20.9544 43.8921 21.0458C43.5776 21.1372 43.2908 21.2652 43.0318 21.4298C42.7727 21.5944 42.5507 21.8046 42.3657 22.0606C42.1992 22.3166 42.1159 22.6092 42.1159 22.9384C42.1159 23.5052 42.3009 23.9258 42.671 24.2001C43.0595 24.4744 43.5313 24.6938 44.0864 24.8584C44.6415 25.0046 45.2521 25.1326 45.9181 25.2424C46.5842 25.3521 47.1948 25.5349 47.7499 25.7909C48.305 26.0286 48.7675 26.3852 49.1376 26.8606C49.5261 27.3178 49.7204 27.9761 49.7204 28.8355C49.7204 29.4938 49.5909 30.0698 49.3318 30.5635C49.0913 31.0389 48.749 31.4412 48.305 31.7704C47.8794 32.0995 47.3891 32.3464 46.834 32.5109C46.2789 32.6755 45.6961 32.7578 45.0855 32.7578C43.9754 32.7578 42.9578 32.5475 42.0326 32.1269C41.126 31.7064 40.4229 31.0572 39.9234 30.1795L41.3943 29.1921ZM53.461 19.7566H55.1263V32.4286H53.461V19.7566ZM53.0447 14.7372C53.0447 14.3898 53.165 14.0972 53.4055 13.8595C53.6461 13.6218 53.9421 13.5029 54.2936 13.5029C54.6452 13.5029 54.9412 13.6218 55.1818 13.8595C55.4223 14.0972 55.5426 14.3898 55.5426 14.7372C55.5426 15.0846 55.4223 15.3772 55.1818 15.6149C54.9412 15.8526 54.6452 15.9715 54.2936 15.9715C53.9421 15.9715 53.6461 15.8526 53.4055 15.6149C53.165 15.3772 53.0447 15.0846 53.0447 14.7372ZM59.851 23.3224C59.851 23.0846 59.8418 22.8012 59.8233 22.4721C59.8047 22.1246 59.7862 21.7772 59.7677 21.4298C59.7677 21.0824 59.7585 20.7624 59.74 20.4698C59.7215 20.1589 59.7122 19.9212 59.7122 19.7566H61.3775C61.396 20.2321 61.4052 20.6892 61.4052 21.1281C61.4237 21.5669 61.4515 21.8504 61.4885 21.9784H61.5717C61.9048 21.2835 62.4598 20.6892 63.2369 20.1955C64.014 19.6835 64.9207 19.4275 65.9568 19.4275C66.9559 19.4275 67.77 19.5829 68.3991 19.8938C69.0282 20.2046 69.5185 20.6161 69.87 21.1281C70.2401 21.6218 70.4899 22.1978 70.6194 22.8561C70.7674 23.5144 70.8414 24.1909 70.8414 24.8858V32.4286H69.1762V24.9681C69.1762 24.4561 69.1299 23.9624 69.0374 23.4869C68.9449 22.9932 68.7784 22.5544 68.5379 22.1704C68.3158 21.7864 67.9921 21.4846 67.5665 21.2652C67.1594 21.0275 66.6229 20.9086 65.9568 20.9086C65.3462 20.9086 64.7634 21.0184 64.2083 21.2378C63.6717 21.4389 63.1999 21.7589 62.7929 22.1978C62.4043 22.6184 62.0898 23.1578 61.8493 23.8161C61.6272 24.4561 61.5162 25.2149 61.5162 26.0926V32.4286H59.851V23.3224ZM88.1504 31.6058C88.1504 33.1784 87.9191 34.4492 87.4565 35.4184C86.994 36.3875 86.4112 37.1372 85.7081 37.6675C85.0235 38.1978 84.2834 38.5544 83.4878 38.7372C82.6922 38.9201 81.9706 39.0115 81.323 39.0115C80.6754 39.0115 80.0371 38.9475 79.408 38.8195C78.7974 38.7098 78.2146 38.5361 77.6595 38.2984C77.1045 38.0789 76.5956 37.8046 76.1331 37.4755C75.689 37.1464 75.3005 36.7715 74.9674 36.3509L76.2719 35.1441C76.8639 35.9669 77.604 36.5704 78.4921 36.9544C79.3803 37.3384 80.3239 37.5304 81.323 37.5304C82.1741 37.5304 82.8865 37.4206 83.46 37.2012C84.0521 36.9818 84.5332 36.6892 84.9032 36.3235C85.2918 35.9761 85.5878 35.5829 85.7913 35.1441C86.0134 34.7235 86.1706 34.2938 86.2631 33.8549C86.3742 33.4344 86.4389 33.0321 86.4574 32.6481C86.4759 32.2641 86.4852 31.9532 86.4852 31.7155V29.9601H86.4297C85.9486 30.7281 85.2918 31.3315 84.4592 31.7704C83.6451 32.2092 82.6829 32.4286 81.5728 32.4286C80.6292 32.4286 79.7411 32.2641 78.9084 31.9349C78.0758 31.5875 77.345 31.1212 76.7156 30.5361C76.1053 29.9326 75.615 29.2378 75.245 28.4515C74.8934 27.6652 74.7177 26.8241 74.7177 25.9281C74.7177 25.0321 74.8934 24.1909 75.245 23.4046C75.615 22.6184 76.1053 21.9326 76.7156 21.3475C77.345 20.7624 78.0758 20.2961 78.9084 19.9486C79.7411 19.6012 80.6292 19.4275 81.5728 19.4275C82.6829 19.4275 83.6451 19.6469 84.4592 20.0858C85.2918 20.5246 85.9486 21.1281 86.4297 21.8961H86.4852V19.7566H88.1504V31.6058ZM86.5407 25.9281C86.5407 25.2332 86.4019 24.5841 86.1244 23.9806C85.8653 23.3589 85.5045 22.8286 85.042 22.3898C84.5979 21.9326 84.0614 21.5761 83.4323 21.3201C82.8217 21.0458 82.1649 20.9086 81.4618 20.9086C80.7587 20.9086 80.0926 21.0458 79.4635 21.3201C78.8529 21.5761 78.3164 21.9326 77.8538 22.3898C77.4098 22.8286 77.049 23.3589 76.7714 23.9806C76.5124 24.5841 76.3829 25.2332 76.3829 25.9281C76.3829 26.6229 76.5124 27.2812 76.7714 27.9029C77.049 28.5064 77.4098 29.0366 77.8538 29.4938C78.3164 29.9326 78.8529 30.2892 79.4635 30.5635C80.0926 30.8195 80.7587 30.9475 81.4618 30.9475C82.1649 30.9475 82.8217 30.8195 83.4323 30.5635C84.0614 30.2892 84.5979 29.9326 85.042 29.4938C85.5045 29.0366 85.8653 28.5064 86.1244 27.9029C86.4019 27.2812 86.5407 26.6229 86.5407 25.9281Z" fill="white"/>
<path d="M101.724 23.0206C101.113 22.2709 100.309 21.8961 99.3094 21.8961C98.9578 21.8961 98.6156 21.9783 98.2825 22.1429C97.9495 22.3075 97.7829 22.5909 97.7829 22.9932C97.7829 23.3223 97.9495 23.5692 98.2825 23.7338C98.6341 23.8801 99.0689 24.0172 99.5869 24.1452C100.123 24.2549 100.688 24.3829 101.28 24.5292C101.89 24.6572 102.455 24.8675 102.973 25.1601C103.509 25.4526 103.944 25.8549 104.277 26.3669C104.629 26.8606 104.805 27.5281 104.805 28.3692C104.805 29.2286 104.61 29.9418 104.222 30.5086C103.852 31.0572 103.371 31.5052 102.779 31.8526C102.187 32.1818 101.52 32.4103 100.78 32.5383C100.04 32.6846 99.3094 32.7578 98.5878 32.7578C97.6442 32.7578 96.6913 32.6298 95.7292 32.3738C94.7671 32.0995 93.953 31.6241 93.2869 30.9475L95.8124 28.1772C96.201 28.6526 96.6265 29.0183 97.0891 29.2743C97.5702 29.5121 98.1252 29.6309 98.7543 29.6309C99.2354 29.6309 99.6702 29.5669 100.059 29.4389C100.447 29.2926 100.642 29.0366 100.642 28.6709C100.642 28.3235 100.466 28.0675 100.114 27.9029C99.7812 27.7201 99.3464 27.5738 98.8098 27.4641C98.2918 27.3361 97.7274 27.2081 97.1169 27.0801C96.5248 26.9338 95.9605 26.7235 95.4239 26.4492C94.9058 26.1749 94.471 25.7909 94.1195 25.2972C93.7864 24.7852 93.6199 24.1086 93.6199 23.2675C93.6199 22.4812 93.7772 21.8046 94.0917 21.2378C94.4248 20.6709 94.8503 20.2046 95.3684 19.8389C95.905 19.4732 96.5155 19.2081 97.2001 19.0435C97.8847 18.8606 98.5785 18.7692 99.2816 18.7692C100.17 18.7692 101.067 18.8972 101.974 19.1532C102.88 19.4092 103.648 19.8663 104.277 20.5246L101.724 23.0206ZM119.705 30.1246C119.039 30.9658 118.197 31.6149 117.18 32.0721C116.162 32.5292 115.108 32.7578 114.016 32.7578C112.98 32.7578 111.999 32.5932 111.074 32.2641C110.167 31.9349 109.372 31.4686 108.687 30.8652C108.021 30.2435 107.494 29.5029 107.105 28.6435C106.717 27.7841 106.522 26.8241 106.522 25.7635C106.522 24.7029 106.717 23.7429 107.105 22.8835C107.494 22.0241 108.021 21.2926 108.687 20.6892C109.372 20.0675 110.167 19.5921 111.074 19.2629C111.999 18.9338 112.98 18.7692 114.016 18.7692C114.978 18.7692 115.848 18.9338 116.625 19.2629C117.42 19.5921 118.086 20.0675 118.623 20.6892C119.178 21.2926 119.604 22.0241 119.9 22.8835C120.196 23.7429 120.344 24.7029 120.344 25.7635V27.0526H110.685C110.852 27.8389 111.213 28.4698 111.768 28.9452C112.323 29.4023 113.008 29.6309 113.822 29.6309C114.506 29.6309 115.08 29.4846 115.542 29.1921C116.023 28.8812 116.44 28.4881 116.791 28.0126L119.705 30.1246ZM116.181 24.2549C116.199 23.5601 115.968 22.9658 115.487 22.4721C115.006 21.9783 114.386 21.7315 113.627 21.7315C113.165 21.7315 112.758 21.8046 112.406 21.9509C112.055 22.0972 111.749 22.2892 111.49 22.5269C111.25 22.7463 111.056 23.0115 110.907 23.3223C110.778 23.6149 110.704 23.9258 110.685 24.2549H116.181ZM135.642 30.1246C134.976 30.9658 134.134 31.6149 133.116 32.0721C132.099 32.5292 131.044 32.7578 129.952 32.7578C128.916 32.7578 127.936 32.5932 127.011 32.2641C126.104 31.9349 125.308 31.4686 124.624 30.8652C123.958 30.2435 123.43 29.5029 123.042 28.6435C122.653 27.7841 122.459 26.8241 122.459 25.7635C122.459 24.7029 122.653 23.7429 123.042 22.8835C123.43 22.0241 123.958 21.2926 124.624 20.6892C125.308 20.0675 126.104 19.5921 127.011 19.2629C127.936 18.9338 128.916 18.7692 129.952 18.7692C130.915 18.7692 131.784 18.9338 132.561 19.2629C133.357 19.5921 134.023 20.0675 134.56 20.6892C135.115 21.2926 135.54 22.0241 135.836 22.8835C136.132 23.7429 136.28 24.7029 136.28 25.7635V27.0526H126.622C126.789 27.8389 127.149 28.4698 127.704 28.9452C128.26 29.4023 128.944 29.6309 129.758 29.6309C130.443 29.6309 131.016 29.4846 131.479 29.1921C131.96 28.8812 132.376 28.4881 132.728 28.0126L135.642 30.1246ZM132.117 24.2549C132.136 23.5601 131.904 22.9658 131.423 22.4721C130.942 21.9783 130.323 21.7315 129.564 21.7315C129.101 21.7315 128.694 21.8046 128.343 21.9509C127.991 22.0972 127.686 22.2892 127.427 22.5269C127.186 22.7463 126.992 23.0115 126.844 23.3223C126.715 23.6149 126.641 23.9258 126.622 24.2549H132.117ZM152.966 32.4286H149.136V30.6732H149.081C148.914 30.9109 148.692 31.1578 148.415 31.4138C148.156 31.6515 147.841 31.8709 147.471 32.0721C147.12 32.2732 146.722 32.4378 146.278 32.5658C145.852 32.6938 145.408 32.7578 144.945 32.7578C143.946 32.7578 143.04 32.5932 142.226 32.2641C141.412 31.9166 140.708 31.4412 140.116 30.8378C139.543 30.2161 139.099 29.4846 138.784 28.6435C138.47 27.8023 138.312 26.8789 138.312 25.8732C138.312 24.9406 138.451 24.0538 138.729 23.2126C139.025 22.3532 139.432 21.5943 139.95 20.9361C140.486 20.2778 141.134 19.7566 141.893 19.3726C142.651 18.9703 143.512 18.7692 144.473 18.7692C145.343 18.7692 146.148 18.9063 146.888 19.1806C147.647 19.4366 148.267 19.8846 148.748 20.5246H148.803V11.6926H152.966V32.4286ZM149.136 25.7635C149.136 24.7578 148.84 23.9441 148.248 23.3223C147.675 22.7006 146.86 22.3898 145.806 22.3898C144.751 22.3898 143.928 22.7006 143.336 23.3223C142.762 23.9441 142.475 24.7578 142.475 25.7635C142.475 26.7692 142.762 27.5829 143.336 28.2046C143.928 28.8263 144.751 29.1372 145.806 29.1372C146.86 29.1372 147.675 28.8263 148.248 28.2046C148.84 27.5829 149.136 26.7692 149.136 25.7635ZM163.925 23.0206C163.315 22.2709 162.51 21.8961 161.511 21.8961C161.159 21.8961 160.817 21.9783 160.484 22.1429C160.151 22.3075 159.984 22.5909 159.984 22.9932C159.984 23.3223 160.151 23.5692 160.484 23.7338C160.836 23.8801 161.27 24.0172 161.788 24.1452C162.325 24.2549 162.889 24.3829 163.481 24.5292C164.092 24.6572 164.656 24.8675 165.174 25.1601C165.711 25.4526 166.146 25.8549 166.479 26.3669C166.83 26.8606 167.006 27.5281 167.006 28.3692C167.006 29.2286 166.812 29.9418 166.423 30.5086C166.053 31.0572 165.572 31.5052 164.98 31.8526C164.388 32.1818 163.722 32.4103 162.982 32.5383C162.242 32.6846 161.511 32.7578 160.789 32.7578C159.846 32.7578 158.893 32.6298 157.931 32.3738C156.969 32.0995 156.154 31.6241 155.488 30.9475L158.014 28.1772C158.402 28.6526 158.828 29.0183 159.291 29.2743C159.772 29.5121 160.327 29.6309 160.956 29.6309C161.437 29.6309 161.872 29.5669 162.26 29.4389C162.649 29.2926 162.843 29.0366 162.843 28.6709C162.843 28.3235 162.667 28.0675 162.316 27.9029C161.983 27.7201 161.548 27.5738 161.011 27.4641C160.493 27.3361 159.929 27.2081 159.318 27.0801C158.726 26.9338 158.162 26.7235 157.625 26.4492C157.107 26.1749 156.673 25.7909 156.321 25.2972C155.988 24.7852 155.821 24.1086 155.821 23.2675C155.821 22.4812 155.979 21.8046 156.293 21.2378C156.626 20.6709 157.052 20.2046 157.57 19.8389C158.106 19.4732 158.717 19.2081 159.402 19.0435C160.086 18.8606 160.78 18.7692 161.483 18.7692C162.371 18.7692 163.269 18.8972 164.175 19.1532C165.082 19.4092 165.85 19.8663 166.479 20.5246L163.925 23.0206Z" fill="white"/>
</svg>
