<svg width="193" height="52" viewBox="0 0 193 52" fill="none" xmlns="http://www.w3.org/2000/svg">
<path d="M190.5 5V2.5H188H5H2.5V5V47V49.5H5H188H190.5V47V5Z" stroke="#152935" stroke-width="5"/>
<path d="M27.4571 25.3224C27.4571 25.0846 27.4479 24.8012 27.4294 24.4721C27.4109 24.1246 27.3924 23.7772 27.3739 23.4298C27.3739 23.0824 27.3646 22.7624 27.3461 22.4698C27.3276 22.1589 27.3184 21.9212 27.3184 21.7566H28.9836C29.0021 22.2321 29.0113 22.6892 29.0113 23.1281C29.0298 23.5669 29.0576 23.8504 29.0946 23.9784C29.5201 23.2286 30.066 22.6161 30.732 22.1406C31.3981 21.6652 32.2122 21.4275 33.1744 21.4275C33.3409 21.4275 33.4982 21.4458 33.6462 21.4824C33.8127 21.5006 33.9792 21.5281 34.1457 21.5646L33.9515 23.1829C33.7294 23.1098 33.5167 23.0732 33.3131 23.0732C32.5915 23.0732 31.9625 23.1921 31.4259 23.4298C30.9078 23.6492 30.473 23.9601 30.1215 24.3624C29.7884 24.7646 29.5386 25.2401 29.3721 25.7886C29.2056 26.3189 29.1223 26.8949 29.1223 27.5166V34.4286H27.4571V25.3224ZM36.9769 21.7566H38.6421V34.4286H36.9769V21.7566ZM36.5606 16.7372C36.5606 16.3898 36.6808 16.0972 36.9214 15.8595C37.1619 15.6218 37.4579 15.5029 37.8095 15.5029C38.161 15.5029 38.4571 15.6218 38.6976 15.8595C38.9381 16.0972 39.0584 16.3898 39.0584 16.7372C39.0584 17.0846 38.9381 17.3772 38.6976 17.6149C38.4571 17.8526 38.161 17.9715 37.8095 17.9715C37.4579 17.9715 37.1619 17.8526 36.9214 17.6149C36.6808 17.3772 36.5606 17.0846 36.5606 16.7372ZM43.3943 31.1921C43.7459 31.8686 44.2639 32.3898 44.9485 32.7555C45.6331 33.1029 46.3547 33.2766 47.1133 33.2766C47.4648 33.2766 47.8164 33.2218 48.1679 33.1121C48.5195 33.0024 48.834 32.8469 49.1115 32.6458C49.3891 32.4446 49.6111 32.2069 49.7776 31.9326C49.9627 31.6401 50.0552 31.3109 50.0552 30.9452C50.0552 30.3601 49.8609 29.9212 49.4723 29.6286C49.1023 29.3361 48.6397 29.1075 48.0847 28.9429C47.5296 28.7784 46.919 28.6412 46.2529 28.5315C45.5868 28.4035 44.9763 28.2206 44.4212 27.9829C43.8661 27.7269 43.3943 27.3795 43.0058 26.9406C42.6357 26.5018 42.4507 25.8801 42.4507 25.0755C42.4507 24.4538 42.5802 23.9144 42.8392 23.4572C43.0983 23.0001 43.4313 22.6252 43.8384 22.3326C44.2639 22.0218 44.7357 21.7932 45.2538 21.6469C45.7719 21.5006 46.2992 21.4275 46.8358 21.4275C47.8904 21.4275 48.797 21.6195 49.5556 22.0035C50.3327 22.3875 50.934 22.9909 51.3596 23.8138L49.8609 24.6915C49.5464 24.1064 49.1486 23.6675 48.6675 23.3749C48.2049 23.0641 47.5944 22.9086 46.8358 22.9086C46.5397 22.9086 46.2252 22.9544 45.8921 23.0458C45.5776 23.1372 45.2908 23.2652 45.0318 23.4298C44.7727 23.5944 44.5507 23.8046 44.3657 24.0606C44.1992 24.3166 44.1159 24.6092 44.1159 24.9384C44.1159 25.5052 44.3009 25.9258 44.671 26.2001C45.0595 26.4744 45.5313 26.6938 46.0864 26.8584C46.6415 27.0046 47.2521 27.1326 47.9181 27.2424C48.5842 27.3521 49.1948 27.5349 49.7499 27.7909C50.305 28.0286 50.7675 28.3852 51.1376 28.8606C51.5261 29.3178 51.7204 29.9761 51.7204 30.8355C51.7204 31.4938 51.5909 32.0698 51.3318 32.5635C51.0913 33.0389 50.749 33.4412 50.305 33.7704C49.8794 34.0995 49.3891 34.3464 48.834 34.5109C48.2789 34.6755 47.6961 34.7578 47.0855 34.7578C45.9754 34.7578 44.9578 34.5475 44.0326 34.1269C43.126 33.7064 42.4229 33.0572 41.9234 32.1795L43.3943 31.1921ZM55.461 21.7566H57.1263V34.4286H55.461V21.7566ZM55.0447 16.7372C55.0447 16.3898 55.165 16.0972 55.4055 15.8595C55.6461 15.6218 55.9421 15.5029 56.2936 15.5029C56.6452 15.5029 56.9412 15.6218 57.1818 15.8595C57.4223 16.0972 57.5426 16.3898 57.5426 16.7372C57.5426 17.0846 57.4223 17.3772 57.1818 17.6149C56.9412 17.8526 56.6452 17.9715 56.2936 17.9715C55.9421 17.9715 55.6461 17.8526 55.4055 17.6149C55.165 17.3772 55.0447 17.0846 55.0447 16.7372ZM61.851 25.3224C61.851 25.0846 61.8418 24.8012 61.8233 24.4721C61.8047 24.1246 61.7862 23.7772 61.7677 23.4298C61.7677 23.0824 61.7585 22.7624 61.74 22.4698C61.7215 22.1589 61.7122 21.9212 61.7122 21.7566H63.3775C63.396 22.2321 63.4052 22.6892 63.4052 23.1281C63.4237 23.5669 63.4515 23.8504 63.4885 23.9784H63.5717C63.9048 23.2835 64.4598 22.6892 65.2369 22.1955C66.014 21.6835 66.9207 21.4275 67.9568 21.4275C68.9559 21.4275 69.77 21.5829 70.3991 21.8938C71.0282 22.2046 71.5185 22.6161 71.87 23.1281C72.2401 23.6218 72.4899 24.1978 72.6194 24.8561C72.7674 25.5144 72.8414 26.1909 72.8414 26.8858V34.4286H71.1762V26.9681C71.1762 26.4561 71.1299 25.9624 71.0374 25.4869C70.9449 24.9932 70.7784 24.5544 70.5379 24.1704C70.3158 23.7864 69.9921 23.4846 69.5665 23.2652C69.1594 23.0275 68.6229 22.9086 67.9568 22.9086C67.3462 22.9086 66.7634 23.0184 66.2083 23.2378C65.6717 23.4389 65.1999 23.7589 64.7929 24.1978C64.4043 24.6184 64.0898 25.1578 63.8493 25.8161C63.6272 26.4561 63.5162 27.2149 63.5162 28.0926V34.4286H61.851V25.3224ZM90.1504 33.6058C90.1504 35.1784 89.9191 36.4492 89.4565 37.4184C88.994 38.3875 88.4112 39.1372 87.7081 39.6675C87.0235 40.1978 86.2834 40.5544 85.4878 40.7372C84.6922 40.9201 83.9706 41.0115 83.323 41.0115C82.6754 41.0115 82.0371 40.9475 81.408 40.8195C80.7974 40.7098 80.2146 40.5361 79.6595 40.2984C79.1045 40.0789 78.5956 39.8046 78.1331 39.4755C77.689 39.1464 77.3005 38.7715 76.9674 38.3509L78.2719 37.1441C78.8639 37.9669 79.604 38.5704 80.4921 38.9544C81.3803 39.3384 82.3239 39.5304 83.323 39.5304C84.1741 39.5304 84.8865 39.4206 85.46 39.2012C86.0521 38.9818 86.5332 38.6892 86.9032 38.3235C87.2918 37.9761 87.5878 37.5829 87.7913 37.1441C88.0134 36.7235 88.1706 36.2938 88.2631 35.8549C88.3742 35.4344 88.4389 35.0321 88.4574 34.6481C88.4759 34.2641 88.4852 33.9532 88.4852 33.7155V31.9601H88.4297C87.9486 32.7281 87.2918 33.3315 86.4592 33.7704C85.6451 34.2092 84.6829 34.4286 83.5728 34.4286C82.6292 34.4286 81.7411 34.2641 80.9084 33.9349C80.0758 33.5875 79.345 33.1212 78.7156 32.5361C78.1053 31.9326 77.615 31.2378 77.245 30.4515C76.8934 29.6652 76.7177 28.8241 76.7177 27.9281C76.7177 27.0321 76.8934 26.1909 77.245 25.4046C77.615 24.6184 78.1053 23.9326 78.7156 23.3475C79.345 22.7624 80.0758 22.2961 80.9084 21.9486C81.7411 21.6012 82.6292 21.4275 83.5728 21.4275C84.6829 21.4275 85.6451 21.6469 86.4592 22.0858C87.2918 22.5246 87.9486 23.1281 88.4297 23.8961H88.4852V21.7566H90.1504V33.6058ZM88.5407 27.9281C88.5407 27.2332 88.4019 26.5841 88.1244 25.9806C87.8653 25.3589 87.5045 24.8286 87.042 24.3898C86.5979 23.9326 86.0614 23.5761 85.4323 23.3201C84.8217 23.0458 84.1649 22.9086 83.4618 22.9086C82.7587 22.9086 82.0926 23.0458 81.4635 23.3201C80.8529 23.5761 80.3164 23.9326 79.8538 24.3898C79.4098 24.8286 79.049 25.3589 78.7714 25.9806C78.5124 26.5841 78.3829 27.2332 78.3829 27.9281C78.3829 28.6229 78.5124 29.2812 78.7714 29.9029C79.049 30.5064 79.4098 31.0366 79.8538 31.4938C80.3164 31.9326 80.8529 32.2892 81.4635 32.5635C82.0926 32.8195 82.7587 32.9475 83.4618 32.9475C84.1649 32.9475 84.8217 32.8195 85.4323 32.5635C86.0614 32.2892 86.5979 31.9326 87.042 31.4938C87.5045 31.0366 87.8653 30.5064 88.1244 29.9029C88.4019 29.2812 88.5407 28.6229 88.5407 27.9281Z" fill="#152935"/>
<path d="M103.724 25.0206C103.113 24.2709 102.309 23.8961 101.309 23.8961C100.958 23.8961 100.616 23.9783 100.283 24.1429C99.9495 24.3075 99.7829 24.5909 99.7829 24.9932C99.7829 25.3223 99.9495 25.5692 100.283 25.7338C100.634 25.8801 101.069 26.0172 101.587 26.1452C102.123 26.2549 102.688 26.3829 103.28 26.5292C103.89 26.6572 104.455 26.8675 104.973 27.1601C105.509 27.4526 105.944 27.8549 106.277 28.3669C106.629 28.8606 106.805 29.5281 106.805 30.3692C106.805 31.2286 106.61 31.9418 106.222 32.5086C105.852 33.0572 105.371 33.5052 104.779 33.8526C104.187 34.1818 103.52 34.4103 102.78 34.5383C102.04 34.6846 101.309 34.7578 100.588 34.7578C99.6442 34.7578 98.6913 34.6298 97.7292 34.3738C96.7671 34.0995 95.953 33.6241 95.2869 32.9475L97.8124 30.1772C98.201 30.6526 98.6265 31.0183 99.0891 31.2743C99.5702 31.5121 100.125 31.6309 100.754 31.6309C101.235 31.6309 101.67 31.5669 102.059 31.4389C102.447 31.2926 102.642 31.0366 102.642 30.6709C102.642 30.3235 102.466 30.0675 102.114 29.9029C101.781 29.7201 101.346 29.5738 100.81 29.4641C100.292 29.3361 99.7274 29.2081 99.1169 29.0801C98.5248 28.9338 97.9605 28.7235 97.4239 28.4492C96.9058 28.1749 96.471 27.7909 96.1195 27.2972C95.7864 26.7852 95.6199 26.1086 95.6199 25.2675C95.6199 24.4812 95.7772 23.8046 96.0917 23.2378C96.4248 22.6709 96.8503 22.2046 97.3684 21.8389C97.905 21.4732 98.5155 21.2081 99.2001 21.0435C99.8847 20.8606 100.579 20.7692 101.282 20.7692C102.17 20.7692 103.067 20.8972 103.974 21.1532C104.88 21.4092 105.648 21.8663 106.277 22.5246L103.724 25.0206ZM121.705 32.1246C121.039 32.9658 120.197 33.6149 119.18 34.0721C118.162 34.5292 117.108 34.7578 116.016 34.7578C114.98 34.7578 113.999 34.5932 113.074 34.2641C112.167 33.9349 111.372 33.4686 110.687 32.8652C110.021 32.2435 109.494 31.5029 109.105 30.6435C108.717 29.7841 108.522 28.8241 108.522 27.7635C108.522 26.7029 108.717 25.7429 109.105 24.8835C109.494 24.0241 110.021 23.2926 110.687 22.6892C111.372 22.0675 112.167 21.5921 113.074 21.2629C113.999 20.9338 114.98 20.7692 116.016 20.7692C116.978 20.7692 117.848 20.9338 118.625 21.2629C119.42 21.5921 120.086 22.0675 120.623 22.6892C121.178 23.2926 121.604 24.0241 121.9 24.8835C122.196 25.7429 122.344 26.7029 122.344 27.7635V29.0526H112.685C112.852 29.8389 113.213 30.4698 113.768 30.9452C114.323 31.4023 115.008 31.6309 115.822 31.6309C116.506 31.6309 117.08 31.4846 117.542 31.1921C118.023 30.8812 118.44 30.4881 118.791 30.0126L121.705 32.1246ZM118.181 26.2549C118.199 25.5601 117.968 24.9658 117.487 24.4721C117.006 23.9783 116.386 23.7315 115.627 23.7315C115.165 23.7315 114.758 23.8046 114.406 23.9509C114.055 24.0972 113.749 24.2892 113.49 24.5269C113.25 24.7463 113.056 25.0115 112.907 25.3223C112.778 25.6149 112.704 25.9258 112.685 26.2549H118.181ZM137.642 32.1246C136.976 32.9658 136.134 33.6149 135.116 34.0721C134.099 34.5292 133.044 34.7578 131.952 34.7578C130.916 34.7578 129.936 34.5932 129.011 34.2641C128.104 33.9349 127.308 33.4686 126.624 32.8652C125.958 32.2435 125.43 31.5029 125.042 30.6435C124.653 29.7841 124.459 28.8241 124.459 27.7635C124.459 26.7029 124.653 25.7429 125.042 24.8835C125.43 24.0241 125.958 23.2926 126.624 22.6892C127.308 22.0675 128.104 21.5921 129.011 21.2629C129.936 20.9338 130.916 20.7692 131.952 20.7692C132.915 20.7692 133.784 20.9338 134.561 21.2629C135.357 21.5921 136.023 22.0675 136.56 22.6892C137.115 23.2926 137.54 24.0241 137.836 24.8835C138.132 25.7429 138.28 26.7029 138.28 27.7635V29.0526H128.622C128.789 29.8389 129.149 30.4698 129.704 30.9452C130.26 31.4023 130.944 31.6309 131.758 31.6309C132.443 31.6309 133.016 31.4846 133.479 31.1921C133.96 30.8812 134.376 30.4881 134.728 30.0126L137.642 32.1246ZM134.117 26.2549C134.136 25.5601 133.904 24.9658 133.423 24.4721C132.942 23.9783 132.323 23.7315 131.564 23.7315C131.101 23.7315 130.694 23.8046 130.343 23.9509C129.991 24.0972 129.686 24.2892 129.427 24.5269C129.186 24.7463 128.992 25.0115 128.844 25.3223C128.715 25.6149 128.641 25.9258 128.622 26.2549H134.117ZM154.966 34.4286H151.136V32.6732H151.081C150.914 32.9109 150.692 33.1578 150.415 33.4138C150.156 33.6515 149.841 33.8709 149.471 34.0721C149.12 34.2732 148.722 34.4378 148.278 34.5658C147.852 34.6938 147.408 34.7578 146.945 34.7578C145.946 34.7578 145.04 34.5932 144.226 34.2641C143.412 33.9166 142.708 33.4412 142.116 32.8378C141.543 32.2161 141.099 31.4846 140.784 30.6435C140.47 29.8023 140.312 28.8789 140.312 27.8732C140.312 26.9406 140.451 26.0538 140.729 25.2126C141.025 24.3532 141.432 23.5943 141.95 22.9361C142.486 22.2778 143.134 21.7566 143.893 21.3726C144.651 20.9703 145.512 20.7692 146.473 20.7692C147.343 20.7692 148.148 20.9063 148.888 21.1806C149.647 21.4366 150.267 21.8846 150.748 22.5246H150.803V13.6926H154.966V34.4286ZM151.136 27.7635C151.136 26.7578 150.84 25.9441 150.248 25.3223C149.675 24.7006 148.86 24.3898 147.806 24.3898C146.751 24.3898 145.928 24.7006 145.336 25.3223C144.762 25.9441 144.475 26.7578 144.475 27.7635C144.475 28.7692 144.762 29.5829 145.336 30.2046C145.928 30.8263 146.751 31.1372 147.806 31.1372C148.86 31.1372 149.675 30.8263 150.248 30.2046C150.84 29.5829 151.136 28.7692 151.136 27.7635ZM165.925 25.0206C165.315 24.2709 164.51 23.8961 163.511 23.8961C163.159 23.8961 162.817 23.9783 162.484 24.1429C162.151 24.3075 161.984 24.5909 161.984 24.9932C161.984 25.3223 162.151 25.5692 162.484 25.7338C162.836 25.8801 163.27 26.0172 163.788 26.1452C164.325 26.2549 164.889 26.3829 165.481 26.5292C166.092 26.6572 166.656 26.8675 167.174 27.1601C167.711 27.4526 168.146 27.8549 168.479 28.3669C168.83 28.8606 169.006 29.5281 169.006 30.3692C169.006 31.2286 168.812 31.9418 168.423 32.5086C168.053 33.0572 167.572 33.5052 166.98 33.8526C166.388 34.1818 165.722 34.4103 164.982 34.5383C164.242 34.6846 163.511 34.7578 162.789 34.7578C161.846 34.7578 160.893 34.6298 159.931 34.3738C158.969 34.0995 158.154 33.6241 157.488 32.9475L160.014 30.1772C160.402 30.6526 160.828 31.0183 161.291 31.2743C161.772 31.5121 162.327 31.6309 162.956 31.6309C163.437 31.6309 163.872 31.5669 164.26 31.4389C164.649 31.2926 164.843 31.0366 164.843 30.6709C164.843 30.3235 164.667 30.0675 164.316 29.9029C163.983 29.7201 163.548 29.5738 163.011 29.4641C162.493 29.3361 161.929 29.2081 161.318 29.0801C160.726 28.9338 160.162 28.7235 159.625 28.4492C159.107 28.1749 158.673 27.7909 158.321 27.2972C157.988 26.7852 157.821 26.1086 157.821 25.2675C157.821 24.4812 157.979 23.8046 158.293 23.2378C158.626 22.6709 159.052 22.2046 159.57 21.8389C160.106 21.4732 160.717 21.2081 161.402 21.0435C162.086 20.8606 162.78 20.7692 163.483 20.7692C164.371 20.7692 165.269 20.8972 166.175 21.1532C167.082 21.4092 167.85 21.8663 168.479 22.5246L165.925 25.0206Z" fill="#152935"/>
</svg>
