<svg width="585" height="508" viewBox="0 0 585 508" fill="none" xmlns="http://www.w3.org/2000/svg">
<rect opacity="0.08" x="-195" y="48" width="526" height="412" stroke="#673AB7" stroke-width="96"/>
<path opacity="0.16" d="M498.482 311.733C521.426 311.733 543.431 320.83 559.656 337.023C575.881 353.216 584.997 375.179 585 398.081V399.418H411.964V398.081C411.967 375.179 421.084 353.216 437.309 337.023C453.534 320.83 475.538 311.733 498.482 311.733Z" fill="#00E676"/>
<path opacity="0.16" d="M176.518 311.732C199.462 311.732 221.467 320.83 237.691 337.023C253.916 353.216 263.033 375.179 263.036 398.081V399.418H90V398.081C90 375.177 99.1152 353.211 115.34 337.016C131.566 320.82 153.572 311.722 176.518 311.722V311.732Z" fill="#00E676"/>
<path d="M340.95 161.372H313.789V187.622H340.95V161.372Z" fill="url(#paint0_linear)"/>
<path d="M340.484 161.821H314.255V187.167H340.484V161.821Z" fill="#F5F5F5"/>
<path d="M378.043 183.996H350.882V210.246H378.043V183.996Z" fill="url(#paint1_linear)"/>
<path d="M377.577 184.451H351.348V209.797H377.577V184.451Z" fill="#F5F5F5"/>
<path d="M419.261 155.201H392.1V181.451H419.261V155.201Z" fill="url(#paint2_linear)"/>
<path d="M418.795 155.65H392.566V180.996H418.795V155.65Z" fill="#F5F5F5"/>
<path d="M377.47 112.112H350.309V138.362H377.47V112.112Z" fill="url(#paint3_linear)"/>
<path d="M377.009 112.567H350.78V137.913H377.009V112.567Z" fill="#F9BF4E"/>
<path d="M336.37 112H309.209V138.25H336.37V112Z" fill="url(#paint4_linear)"/>
<path d="M335.903 112.454H309.675V137.801H335.903V112.454Z" fill="#F9BF4E"/>
<path d="M299.271 134.63H272.111V160.88H299.271V134.63Z" fill="url(#paint5_linear)"/>
<path d="M298.811 135.079H272.582V160.425H298.811V135.079Z" fill="#F9BF4E"/>
<path d="M262.087 397.145L254.464 392.926C246.482 388.6 244.586 382.461 244.532 377.724C244.542 376.922 244.601 376.122 244.709 375.328L255.311 333.405C255.311 333.405 267.15 308.92 250.661 301.749C237.97 296.225 207.461 287.67 194.105 284.06C197.127 280.948 199.077 278.531 199.077 278.531L198.718 277.702L199.077 277.264C199.077 277.264 197.512 273.703 195.359 268.393L202.457 262.067C202.457 262.067 202.184 262.019 201.739 261.912L202.034 261.644C202.034 261.644 201.745 261.591 201.268 261.479C206.228 257.158 217.441 246.586 211.757 243.918C206.277 241.341 195.873 249.57 191.245 253.618C190.864 253.762 190.403 253.934 189.868 254.121C189.161 252.158 188.47 250.169 187.805 248.191L196.955 233.785C196.982 233.512 196.998 233.25 196.998 232.999C199.821 229.042 208.055 216.422 202.028 211.834C195.402 206.776 188.775 222.882 187.778 225.427C187.178 225.352 186.803 225.341 186.803 225.341C186.139 226.668 184.436 227.646 182.957 228.277C182.957 228.149 182.957 228.015 182.957 227.892C182.957 227.769 182.957 227.561 182.984 227.4C183.124 225.789 183.182 224.172 183.155 222.556C183.155 221.598 183.155 220.641 183.08 219.684C182.898 217.101 182.711 213.802 182.684 210.925C182.684 208.332 182.909 206.316 183.434 205.925L183.032 205.476C183.08 205.169 183.22 204.884 183.434 204.658C183.434 204.658 183.005 204.172 182.309 203.407C183.536 199.888 185.437 194.739 187.5 190.295L187.939 190.204C188.095 189.883 188.25 189.563 188.405 189.253C191.928 188.343 195.134 186.486 197.672 183.883C200.21 181.281 201.983 178.032 202.799 174.493C203.615 170.953 203.441 167.258 202.297 163.81C201.154 160.362 199.083 157.293 196.312 154.939C196.541 154.823 196.754 154.677 196.945 154.506C198.016 153.506 198.096 151.832 198.086 150.378C198.086 146.724 198.068 143.068 198.032 139.41C198.032 137.993 198.032 136.523 197.405 135.239C197.162 134.724 196.814 134.265 196.382 133.892C196.061 133.477 195.639 133.15 195.156 132.943C194.673 132.737 194.146 132.656 193.623 132.71C192.337 132.919 191.453 134.058 190.58 135.025C188.286 137.494 185.33 139.253 182.063 140.095C178.797 140.937 175.357 140.825 172.152 139.774C170.545 139.239 169.007 138.426 167.33 138.239C165.653 138.052 163.709 138.683 163.045 140.234C162.284 141.961 163.355 144.041 162.755 145.832C161.598 149.308 155.732 148.677 154.002 151.907C152.55 154.618 155.02 157.634 156.68 160.217C159.793 165.029 160.35 170.975 161.968 176.462C162.632 178.724 164.416 183.659 166.928 185.969C167.157 186.215 167.402 186.446 167.662 186.659C167.199 188.457 166.632 190.226 165.964 191.958C164.592 191.628 163.147 191.783 161.877 192.397C158.073 194.509 139.039 204.637 137.77 231.229C137.684 233.052 137.646 234.999 137.657 237.041C137.528 264.617 146.228 311.433 146.228 311.433C146.228 311.433 147.611 310.054 149.855 308.166C153.3 313.134 164.32 320.32 199.087 321.144L234.177 322.427C234.177 322.427 237.98 324.962 232.907 330.871C229.58 334.747 229.157 343.704 229.27 349.415C229.342 353.287 228.939 357.154 228.07 360.928C227.159 364.88 226.018 369.73 225.23 372.692C224.813 372.432 224.411 372.15 224.025 371.847L218.952 405.193H219.011L218.952 405.599C218.952 405.599 256.168 416.15 267.166 408.556C270.118 406.519 271.114 404.781 271.002 403.337C271.302 399.086 262.087 397.145 262.087 397.145Z" fill="url(#paint6_linear)"/>
<path d="M170.502 180.012C170.502 180.012 168.45 198.038 161.882 201.728C155.314 205.417 181.607 209.508 181.607 209.508C181.607 209.508 188.994 186.156 193.928 184.108C198.862 182.06 170.502 180.012 170.502 180.012Z" fill="#FDB797"/>
<path d="M188.148 227.127C188.148 227.127 195.112 208.284 202.104 213.609C209.095 218.935 196.355 235.325 196.355 235.325L188.148 227.127Z" fill="#FDB797"/>
<path d="M150 302.514C150 302.514 147.129 318.491 199.254 319.721L233.32 320.951C233.32 320.951 237.016 323.411 232.087 329.143C228.873 332.886 228.45 341.603 228.557 347.142C228.628 350.897 228.237 354.647 227.395 358.308C226.125 363.821 224.384 371.141 223.88 372.162C223.061 373.799 243.166 373.799 243.166 373.799L253.837 331.598C253.837 331.598 265.329 307.834 249.321 300.872C233.314 293.91 188.164 282.028 188.164 282.028L150 302.514Z" fill="#4D8AF0"/>
<path opacity="0.1" d="M236.995 370.933C236.995 370.933 242.722 365.805 244.575 367.756C244.575 367.756 238.634 381.59 253.002 389.37L260.389 393.466C260.389 393.466 275.984 396.744 265.313 404.118C254.641 411.492 218.523 401.252 218.523 401.252L223.447 368.885C223.447 368.885 230.427 374.622 236.995 370.933Z" fill="black"/>
<path d="M236.995 371.344C236.995 371.344 242.722 366.216 244.575 368.168C244.575 368.168 238.634 382.002 253.002 389.782L260.389 393.878C260.389 393.878 275.984 397.156 265.313 404.53C254.641 411.904 218.523 401.664 218.523 401.664L223.447 369.296C223.447 369.296 230.427 375.029 236.995 371.344Z" fill="#333333"/>
<path d="M181.173 230.405C181.173 230.405 186.096 229.176 187.329 226.716C187.329 226.716 198 227.128 197.18 234.908L186.509 251.704L181.173 230.405Z" fill="#673AB7"/>
<path opacity="0.05" d="M181.173 230.405C181.173 230.405 186.096 229.176 187.329 226.716C187.329 226.716 198 227.128 197.18 234.908L186.509 251.704L181.173 230.405Z" fill="#673AB7"/>
<path opacity="0.1" d="M172.961 198.038C172.961 198.038 166.805 193.942 163.109 195.99C159.413 198.038 140.946 207.872 139.714 233.662C138.482 259.452 147.921 310.278 147.921 310.278C147.921 310.278 161.877 296.348 172.961 296.76C184.045 297.172 199.211 278.323 199.211 278.323C199.211 278.323 182.604 240.512 183.584 228.7C183.775 226.618 183.807 224.525 183.68 222.438C183.311 217.139 182.904 208.695 184.023 207.856C184.045 207.872 175.018 197.632 172.961 198.038Z" fill="#673AB7"/>
<path d="M172.961 196.808C172.961 196.808 166.805 192.712 163.109 194.76C159.412 196.808 140.946 206.642 139.714 232.453C138.482 258.265 147.927 309.059 147.927 309.059C147.927 309.059 161.882 295.129 172.966 295.541C184.05 295.953 199.216 277.103 199.216 277.103C199.216 277.103 182.609 239.292 183.589 227.48C183.78 225.398 183.812 223.305 183.686 221.219C183.316 215.919 182.909 207.476 184.029 206.636C184.045 206.642 175.018 196.402 172.961 196.808Z" fill="#673AB7"/>
<path d="M189.38 256.217C189.38 256.217 204.568 241.469 211.543 244.747C218.518 248.025 199.221 263.591 199.221 263.591L189.38 256.217Z" fill="#FDB797"/>
<path opacity="0.1" d="M153.263 229.176C153.263 229.176 158.186 270.147 161.063 272.606C163.939 275.066 172.966 286.536 191.025 272.606L202.5 262.361C202.5 262.361 191.416 260.313 193.061 254.169C193.061 254.169 178.286 260.313 175.822 255.399C173.357 250.485 179.518 227.951 179.518 227.951C179.518 227.951 176.234 207.877 166.795 211.562C157.355 215.246 153.263 229.176 153.263 229.176Z" fill="#673AB7"/>
<path d="M152.85 228.769C152.85 228.769 157.773 269.74 160.65 272.2C163.527 274.66 172.554 286.13 190.612 272.2L202.104 261.96C202.104 261.96 191.02 259.912 192.664 253.768C192.664 253.768 177.889 259.912 175.425 254.998C172.961 250.084 179.121 227.55 179.121 227.55C179.121 227.55 175.837 207.46 166.398 211.15C156.959 214.839 152.85 228.769 152.85 228.769Z" fill="#673AB7"/>
<path opacity="0.1" d="M170.502 180.831C170.502 180.831 170.979 181.446 170.298 184.724C173.834 188.745 178.264 193.124 184.05 193.124C185.523 193.124 186.992 192.955 188.427 192.621C190.28 188.771 192.23 185.627 193.902 184.932C198.82 182.863 170.502 180.831 170.502 180.831Z" fill="black"/>
<path d="M184.045 192.306C194.699 192.306 203.336 183.685 203.336 173.05C203.336 162.416 194.699 153.795 184.045 153.795C173.39 153.795 164.754 162.416 164.754 173.05C164.754 183.685 173.39 192.306 184.045 192.306Z" fill="#FDB797"/>
<path opacity="0.1" d="M175.473 181.905C175.789 180.429 176.052 178.724 175.109 177.542C174.573 176.847 173.679 176.472 173.052 175.852C170.866 173.649 172.789 169.917 175.034 167.772C180.167 162.901 186.748 159.829 193.784 159.019C194.973 158.885 196.264 158.778 197.143 157.949C198.214 156.976 198.257 155.372 198.252 153.944L198.198 143.303C198.198 141.929 198.198 140.501 197.593 139.255C196.987 138.009 195.696 136.993 194.336 137.213C193.087 137.416 192.23 138.523 191.384 139.464C189.157 141.86 186.288 143.568 183.117 144.385C179.946 145.202 176.607 145.094 173.496 144.073C171.943 143.538 170.443 142.763 168.809 142.587C167.175 142.41 165.295 143.02 164.63 144.522C163.891 146.201 164.93 148.217 164.352 149.955C163.227 153.329 157.532 152.714 155.855 155.837C154.446 158.468 156.841 161.398 158.464 163.906C161.486 168.569 162.027 174.35 163.596 179.676C164.427 182.504 167.057 189.638 170.689 190.092C175.002 190.659 174.804 185.06 175.473 181.905Z" fill="black"/>
<path d="M175.066 181.494C175.382 180.018 175.645 178.312 174.702 177.13C174.166 176.435 173.271 176.061 172.645 175.441C170.459 173.237 172.382 169.494 174.643 167.355C179.776 162.484 186.357 159.412 193.393 158.602C194.582 158.468 195.873 158.361 196.752 157.532C197.823 156.559 197.866 154.955 197.861 153.527L197.807 142.886C197.807 141.512 197.807 140.084 197.202 138.838C196.596 137.592 195.305 136.576 193.945 136.796C192.696 136.999 191.839 138.106 190.993 139.047C188.766 141.443 185.897 143.151 182.726 143.968C179.555 144.785 176.216 144.677 173.105 143.656C171.552 143.121 170.052 142.346 168.418 142.17C166.784 141.993 164.904 142.603 164.239 144.105C163.5 145.784 164.539 147.8 163.961 149.538C162.836 152.912 157.141 152.297 155.464 155.42C154.055 158.051 156.45 160.981 158.073 163.489C161.095 168.152 161.636 173.933 163.205 179.259C164.036 182.087 166.666 189.221 170.298 189.675C174.589 190.247 174.391 184.649 175.066 181.494Z" fill="#333333"/>
<path d="M216.907 191.847L191.266 197.357L196.61 222.136L222.251 216.626L216.907 191.847Z" fill="#01B9B9"/>
<path d="M541.275 209.064C540.739 206.786 539.668 204.664 538.896 202.45C537.84 199.241 537.298 195.886 537.289 192.509C537.289 187.023 538.254 181.424 539.138 175.981C539.871 171.451 540.498 166.746 540.429 162.152C540.429 157.367 539.684 152.688 537.536 148.426C535.163 143.72 530.721 139.694 525.461 139.336C520.457 138.999 515.818 141.934 510.889 142.72C505.961 143.506 501.021 142.154 496.088 142.512C491.388 142.865 486.932 144.743 483.402 147.859C480.696 150.271 478.548 153.591 478.505 157.217C478.505 157.351 478.505 157.479 478.505 157.607C478.505 157.736 478.505 157.778 478.505 157.869C478.441 163.447 482.679 165.436 487.5 166.286C487.112 168.859 487.24 171.484 487.879 174.006C488.517 176.529 489.652 178.9 491.218 180.981C492.783 183.061 494.748 184.81 496.998 186.124C499.248 187.439 501.737 188.293 504.321 188.638C504.557 189.062 504.786 189.495 505.007 189.937C505.061 190.622 505.098 191.306 505.104 191.996C505.033 195.728 504.225 199.41 502.725 202.829C501.733 203.459 500.666 203.962 499.548 204.327L487.141 218.69C485.883 219.868 484.779 221.201 483.857 222.657C483.443 222.889 483.027 223.115 482.609 223.336L483.332 223.524L483.273 223.63L482.614 223.989L483.016 224.096C481.604 226.645 480.885 229.519 480.932 232.432C480.908 235.161 481.583 237.85 482.893 240.245C483.743 241.896 484.478 243.604 485.095 245.357L480.932 252.003L466.864 272.804L456.059 274.836C453.639 274.544 451.193 274.544 448.773 274.836L451.002 270.639C451.069 270.512 451.11 270.373 451.122 270.231C451.134 270.088 451.117 269.945 451.073 269.808C451.029 269.672 450.957 269.546 450.863 269.438C450.769 269.33 450.655 269.242 450.526 269.179C450.397 269.116 450.257 269.08 450.114 269.072C449.971 269.064 449.827 269.084 449.692 269.133C449.557 269.181 449.434 269.256 449.328 269.353C449.223 269.45 449.138 269.567 449.079 269.698L446.105 275.296C442.736 276.061 439.211 277.622 436.757 280.718C434.079 284.082 436.757 285.221 440.727 285.424L440.314 286.194C440.225 286.378 440.19 286.583 440.214 286.786C440.237 286.988 440.319 287.18 440.448 287.338C439.945 287.477 439.377 287.632 438.841 287.809H429.846V292.06C427.27 293.873 425.057 296.226 423.954 299.252C416.775 305.327 416.164 316.973 416.164 316.973L393.214 383.921C393.214 383.921 392.716 384.665 391.966 385.873C385.671 389.857 373.136 405.525 376.43 412L390.241 405.006L390.6 405.156L391.607 404.316L419.464 390.226L413.288 377.777L412.43 378.098C412.179 376.847 412.28 375.692 413.213 375.109C414.729 374.163 424.393 355.752 432.241 340.453C434.984 348.635 440.705 367.655 438.021 376.9L436.998 377.665C432.139 382.21 423.546 402.263 428.743 407.776L442.704 394.712L453.461 384.911L453.67 384.456L463.902 374.831L454.484 364.607L453.016 365.676C452.164 363.163 450.396 357.479 451.157 355.468C451.918 353.458 453.911 333.197 450.82 319.326L453.038 319.176C460.736 329.208 470.041 338.132 472.752 338.811C473.019 338.874 473.296 338.884 473.566 338.838C478.838 339.683 488.459 318.561 488.459 318.561H515.288C538.907 315.192 534.996 296.236 530.25 284.713C530.395 284.782 530.534 284.852 530.668 284.921C530.668 284.921 530.614 284.67 530.518 284.194L530.668 284.269C529.242 277.024 528.508 269.659 528.477 262.275C528.46 257.135 528.924 252.004 529.864 246.95C531.729 250.212 534.611 252.971 538.275 253.426C540.256 241.576 541.433 229.607 541.8 217.599C541.8 216.748 541.843 215.898 541.843 215.048C541.901 213.038 541.71 211.028 541.275 209.064ZM472.088 283.467L473.486 281.863C479.914 280.98 486.546 279.948 490.955 278.932C489.435 280.984 487.491 282.687 485.255 283.927C481.902 283.734 477.214 283.51 472.088 283.467ZM488.646 264.719L487.141 268.954L484.463 269.489L488.646 264.719ZM443.111 285.451C445.621 285.36 448.125 285.132 450.611 284.766L450.466 284.889C448.451 285.239 446.469 285.758 444.541 286.44C444.541 286.44 443.711 286.558 442.398 286.862L443.111 285.451Z" fill="url(#paint7_linear)"/>
<path d="M441.498 287.172C441.377 287.113 441.268 287.03 441.179 286.929C441.089 286.828 441.021 286.71 440.977 286.583C440.933 286.455 440.915 286.32 440.924 286.185C440.932 286.051 440.967 285.919 441.027 285.798L449.464 269.933C449.524 269.811 449.606 269.703 449.708 269.614C449.809 269.525 449.927 269.456 450.055 269.413C450.183 269.369 450.318 269.351 450.453 269.359C450.588 269.368 450.72 269.403 450.841 269.462C450.962 269.521 451.071 269.604 451.16 269.705C451.25 269.806 451.318 269.924 451.362 270.052C451.406 270.179 451.424 270.314 451.415 270.449C451.407 270.584 451.372 270.715 451.312 270.836L442.875 286.702C442.816 286.823 442.733 286.931 442.631 287.02C442.53 287.11 442.412 287.178 442.284 287.222C442.156 287.266 442.021 287.284 441.886 287.275C441.751 287.267 441.619 287.232 441.498 287.172Z" fill="#4D8AF0"/>
<path d="M445.098 286.028C445.098 286.028 422.186 289.327 424.704 305.027L431.941 334.234C431.941 334.234 442.655 362.81 438.546 373.804C438.546 373.804 434.459 391.391 430.366 390.76C426.273 390.129 439.173 393.899 439.173 393.899L453.637 380.708L458.036 370.97C458.036 370.97 459.295 368.141 453.632 363.436C453.632 363.436 450.487 354.955 451.43 352.447C452.373 349.939 455.18 319.219 447.493 308.669L445.098 286.028Z" fill="#BE7C5E"/>
<path opacity="0.1" d="M445.098 286.028C445.098 286.028 422.186 289.327 424.704 305.027L431.941 334.234C431.941 334.234 442.655 362.81 438.546 373.804C438.546 373.804 434.459 391.391 430.366 390.76C426.273 390.129 439.173 393.899 439.173 393.899L453.637 380.708L458.036 370.97C458.036 370.97 459.295 368.141 453.632 363.436C453.632 363.436 450.487 354.955 451.43 352.447C452.373 349.939 455.18 319.219 447.493 308.669L445.098 286.028Z" fill="black"/>
<path d="M429.884 402.696L463.709 371.045L454.65 361.211L437.818 373.761C433.146 378.13 424.88 397.391 429.884 402.717V402.696Z" fill="#F5F5F5"/>
<path d="M489.198 283.985C489.198 283.985 455.223 280.847 443.266 286.814C443.266 286.814 442.323 291.841 447.354 297.803C452.384 303.765 489.198 283.985 489.198 283.985Z" fill="#333333"/>
<path opacity="0.3" d="M489.198 283.985C489.198 283.985 455.223 280.847 443.266 286.814C443.266 286.814 442.323 291.841 447.354 297.803C452.384 303.765 489.198 283.985 489.198 283.985Z" fill="black"/>
<path d="M463.671 287.354H430.961V291.916H463.671V287.354Z" fill="#E0E0E0"/>
<path d="M451.762 293.407C451.762 293.407 433.516 292.151 425.962 297.803C418.409 303.455 417.782 315.39 417.782 315.39L395.759 379.766C395.759 379.766 388.928 389.99 387.895 396.097C387.578 397.979 393.252 400.177 393.252 400.177L412.441 384.135L416.191 378.788C416.191 378.788 412.441 372.82 414.932 371.253C417.423 369.687 443.245 318.181 443.245 318.181L476.298 316.01L451.762 293.407Z" fill="#BE7C5E"/>
<path opacity="0.1" d="M522.546 275.82C522.546 275.82 545.512 312.246 512.48 316.957H486.68C486.68 316.957 477.241 337.683 472.216 336.426C467.191 335.17 438.552 304.396 442.955 293.402L483.541 283.98C483.541 283.98 491.089 280.526 491.721 273.617L522.546 275.82Z" fill="black"/>
<path d="M523.179 275.82C523.179 275.82 546.145 312.268 513.107 316.957H487.313C487.313 316.957 477.873 337.683 472.848 336.427C467.823 335.17 439.179 304.396 443.571 293.408L484.157 283.986C484.157 283.986 491.705 280.531 492.338 273.623L523.179 275.82Z" fill="#333333"/>
<path d="M379.618 406.76L420.964 385.82L415.023 373.852L395.357 381.178C389.646 384.071 376.313 400.252 379.623 406.76H379.618Z" fill="#F5F5F5"/>
<path d="M487.939 240.335L480.075 252.912L461.196 280.863C461.196 280.863 445.779 281.488 447.67 293.739C449.561 305.99 467.802 287.456 467.802 287.456L498.337 252.912L487.939 240.335Z" fill="#BE7C5E"/>
<path opacity="0.1" d="M487.939 240.335L480.075 252.912L461.196 280.863C461.196 280.863 445.779 281.488 447.67 293.739C449.561 305.99 467.802 287.456 467.802 287.456L498.337 252.912L487.939 240.335Z" fill="black"/>
<path d="M505.088 192.135C515.514 192.135 523.966 183.698 523.966 173.291C523.966 162.884 515.514 154.447 505.088 154.447C494.661 154.447 486.209 162.884 486.209 173.291C486.209 183.698 494.661 192.135 505.088 192.135Z" fill="#BE7C5E"/>
<path d="M495.804 183.183C495.804 183.183 512.48 198.257 503.041 213.663C493.602 229.068 526.323 203.3 526.323 203.3C526.323 203.3 514.998 184.44 517.5 173.136L495.804 183.183Z" fill="#BE7C5E"/>
<path opacity="0.1" d="M508.393 198.904C508.393 198.904 503.989 205.813 498.011 207.695L486.053 221.497C486.053 221.497 475.987 230.288 481.966 241.592C487.945 252.896 491.405 280.847 491.405 280.847C491.405 280.847 520.977 280.847 527.898 284.59C527.898 284.59 521.92 257.27 530.1 238.111C538.28 218.952 523.805 192.579 523.805 192.579L508.393 198.904Z" fill="black"/>
<path d="M508.393 198.257C508.393 198.257 503.989 205.166 498.011 207.048L486.053 220.866C486.053 220.866 475.987 229.657 481.966 240.961C487.945 252.265 491.405 280.215 491.405 280.215C491.405 280.215 520.977 280.215 527.898 283.959C527.898 283.959 521.92 256.639 530.1 237.48C538.28 218.32 523.805 191.953 523.805 191.953L508.393 198.257Z" fill="#F94E58"/>
<path d="M520.661 229.662C520.661 229.662 498.954 274.58 494.234 277.392C489.514 280.205 453.648 283.986 453.648 283.986C453.648 283.986 431.625 288.066 437.577 280.531C443.529 272.997 456.139 274.879 456.139 274.879L486.027 269.227L503.33 220.567L520.661 229.662Z" fill="#BE7C5E"/>
<path opacity="0.1" d="M510.905 208.305C510.905 208.305 493.602 218.668 497.062 228.09C497.062 228.09 516.884 225.261 523.805 238.453C523.805 238.453 534.814 226.208 526.323 213.016C526.323 213.016 521.604 204.535 510.905 208.305Z" fill="black"/>
<path d="M510.905 207.68C510.905 207.68 493.602 218.043 497.062 227.465C497.062 227.465 516.884 224.636 523.805 237.828C523.805 237.828 534.814 225.582 526.323 212.391C526.323 212.391 521.604 203.91 510.905 207.68Z" fill="#F94E58"/>
<path opacity="0.1" d="M496.559 171.339C496.84 171.326 497.12 171.37 497.384 171.467C497.648 171.565 497.889 171.714 498.093 171.907C498.298 172.1 498.461 172.331 498.574 172.588C498.687 172.845 498.747 173.122 498.75 173.403L501.107 182.419C502.227 186.696 503.357 191.049 503.357 195.477C503.357 208.578 493.318 219.876 481.693 225.956L493.586 229.074C494.747 229.462 495.975 229.615 497.196 229.523C498.205 229.33 499.163 228.935 500.014 228.363C505.071 225.272 508.698 220.235 511.093 214.818C513.488 209.401 514.763 203.589 516.027 197.792C519.95 204.741 522.361 212.437 523.104 220.379C523.902 229.004 522.772 238.057 526.109 246.046C527.764 250.009 530.93 253.784 535.216 254.313C537.121 242.923 538.254 231.418 538.607 219.876C538.688 217.32 538.72 214.732 538.114 212.246C537.579 210.053 536.561 208.016 535.827 205.883C532.977 197.568 534.648 188.477 536.057 179.804C537.466 171.13 538.473 161.783 534.514 153.933C532.232 149.41 527.963 145.538 522.9 145.196C518.079 144.875 513.648 147.693 508.891 148.447C504.134 149.201 499.404 147.912 494.663 148.249C490.132 148.603 485.843 150.431 482.454 153.452C479.85 155.773 477.788 158.965 477.75 162.446C477.643 171.794 490.221 170.617 496.559 171.339Z" fill="#333333"/>
<path d="M496.559 170.713C496.84 170.7 497.12 170.744 497.384 170.842C497.647 170.939 497.889 171.089 498.093 171.281C498.298 171.474 498.461 171.706 498.574 171.963C498.687 172.22 498.747 172.497 498.75 172.777L501.107 181.793C502.227 186.071 503.357 190.424 503.357 194.851C503.357 207.952 493.318 219.251 481.693 225.331L493.586 228.448C494.747 228.837 495.975 228.989 497.196 228.897C498.205 228.705 499.163 228.31 500.014 227.737C505.071 224.646 508.698 219.609 511.093 214.192C513.487 208.776 514.762 202.963 516.027 197.167C519.952 204.117 522.366 211.815 523.109 219.759C523.907 228.384 522.777 237.437 526.114 245.426C527.77 249.388 530.936 253.164 535.221 253.693C537.126 242.303 538.259 230.798 538.612 219.256C538.693 216.7 538.725 214.112 538.12 211.626C537.584 209.433 536.566 207.396 535.832 205.262C532.982 196.947 534.654 187.857 536.062 179.184C537.471 170.51 538.479 161.163 534.52 153.313C532.237 148.789 527.968 144.918 522.905 144.576C518.084 144.255 513.654 147.073 508.896 147.827C504.139 148.581 499.409 147.292 494.668 147.629C490.146 147.973 485.862 149.786 482.47 152.789C479.866 155.11 477.804 158.302 477.766 161.783C477.643 171.168 490.221 169.992 496.559 170.713Z" fill="#333333"/>
<defs>
<linearGradient id="paint0_linear" x1="327.37" y1="187.616" x2="327.37" y2="161.372" gradientUnits="userSpaceOnUse">
<stop stop-color="#808080" stop-opacity="0.25"/>
<stop offset="0.54" stop-color="#808080" stop-opacity="0.12"/>
<stop offset="1" stop-color="#808080" stop-opacity="0.1"/>
</linearGradient>
<linearGradient id="paint1_linear" x1="14266.1" y1="5006.9" x2="14266.1" y2="3718.29" gradientUnits="userSpaceOnUse">
<stop stop-color="#808080" stop-opacity="0.25"/>
<stop offset="0.54" stop-color="#808080" stop-opacity="0.12"/>
<stop offset="1" stop-color="#808080" stop-opacity="0.1"/>
</linearGradient>
<linearGradient id="paint2_linear" x1="16397.1" y1="3564.28" x2="16397.1" y2="2275.93" gradientUnits="userSpaceOnUse">
<stop stop-color="#808080" stop-opacity="0.25"/>
<stop offset="0.54" stop-color="#808080" stop-opacity="0.12"/>
<stop offset="1" stop-color="#808080" stop-opacity="0.1"/>
</linearGradient>
<linearGradient id="paint3_linear" x1="14236.5" y1="1406.23" x2="14236.5" y2="117.625" gradientUnits="userSpaceOnUse">
<stop stop-color="#808080" stop-opacity="0.25"/>
<stop offset="0.54" stop-color="#808080" stop-opacity="0.12"/>
<stop offset="1" stop-color="#808080" stop-opacity="0.1"/>
</linearGradient>
<linearGradient id="paint4_linear" x1="12111.6" y1="1400.61" x2="12111.6" y2="112" gradientUnits="userSpaceOnUse">
<stop stop-color="#808080" stop-opacity="0.25"/>
<stop offset="0.54" stop-color="#808080" stop-opacity="0.12"/>
<stop offset="1" stop-color="#808080" stop-opacity="0.1"/>
</linearGradient>
<linearGradient id="paint5_linear" x1="10193.7" y1="2533.87" x2="10193.7" y2="1245.53" gradientUnits="userSpaceOnUse">
<stop stop-color="#808080" stop-opacity="0.25"/>
<stop offset="0.54" stop-color="#808080" stop-opacity="0.12"/>
<stop offset="1" stop-color="#808080" stop-opacity="0.1"/>
</linearGradient>
<linearGradient id="paint6_linear" x1="46999.9" y1="203293" x2="46999.9" y2="58133.9" gradientUnits="userSpaceOnUse">
<stop stop-color="#808080" stop-opacity="0.25"/>
<stop offset="0.54" stop-color="#808080" stop-opacity="0.12"/>
<stop offset="1" stop-color="#808080" stop-opacity="0.1"/>
</linearGradient>
<linearGradient id="paint7_linear" x1="137556" y1="199346" x2="137556" y2="60284.1" gradientUnits="userSpaceOnUse">
<stop stop-color="#808080" stop-opacity="0.25"/>
<stop offset="0.54" stop-color="#808080" stop-opacity="0.12"/>
<stop offset="1" stop-color="#808080" stop-opacity="0.1"/>
</linearGradient>
</defs>
</svg>
